<svg width="128" height="128" viewBox="0 0 128 128" fill="none" xmlns="http://www.w3.org/2000/svg">
<path d="M123.998 63.6093C124.079 74.0886 121.399 84.4044 116.227 93.5199C115.557 94.704 114.848 95.8622 114.099 96.9947C113.728 97.5702 113.247 98.0666 112.684 98.4547C112.12 98.8433 111.485 99.1159 110.815 99.2569C110.145 99.3979 109.454 99.4045 108.782 99.2768C108.109 99.1487 107.469 98.8886 106.898 98.511C106.327 98.1337 105.836 97.6469 105.455 97.0787C105.073 96.5105 104.808 95.8722 104.675 95.2007C104.542 94.5296 104.544 93.8386 104.68 93.1678C104.817 92.497 105.085 91.8603 105.469 91.2937C110.405 83.8031 113.219 75.1151 113.611 66.1535C114.003 57.1919 111.959 48.2915 107.696 40.3984C103.433 32.5054 97.1104 25.9144 89.4004 21.3264C81.6904 16.7384 72.8811 14.3247 63.9085 14.3418C46.6623 14.3755 31.3706 23.4269 22.4824 36.9511C17.169 45.0199 14.3416 54.47 14.3508 64.1302C14.3599 73.7904 17.2054 83.2355 22.5341 91.2937C23.2896 92.4384 23.5593 93.8366 23.2838 95.1798C23.0083 96.5234 22.2103 97.7025 21.0652 98.4581C19.9202 99.2132 18.5219 99.4829 17.178 99.2073C15.8341 98.9319 14.6547 98.1341 13.8993 96.9894C7.99062 88.0251 4.59674 77.6395 4.07175 66.9166C3.54679 56.1938 5.90995 45.5268 10.9146 36.0284C15.9194 26.5299 23.3822 18.5483 32.5242 12.9165C41.6666 7.28475 52.1532 4.2091 62.8897 4.01054C63.2674 4.0028 63.6421 4.00022 64.0171 4.00022C79.8734 3.96756 95.0949 10.2259 106.34 21.4016C117.586 32.5775 123.936 47.7573 123.998 63.6093Z" fill="#F8F8F2"/>
<path d="M27.8078 73.229L37.1819 119.849C37.7447 122.648 40.4699 124.46 43.2693 123.898C46.0687 123.335 47.882 120.61 47.3193 117.812L37.9453 71.1918C37.3825 68.3931 34.6569 66.5802 31.8575 67.1428C29.0582 67.7054 27.2451 70.4303 27.8078 73.229Z" fill="#D6ACFF"/>
<path d="M37.0032 118.797L34.6265 119.276C31.0952 119.986 27.4255 119.322 24.3682 117.417C21.3109 115.513 19.097 112.512 18.1792 109.03C18.1094 108.761 18.0447 108.492 17.9904 108.218L14.5845 91.3015C13.8465 87.6295 14.5969 83.8145 16.6709 80.6955C18.7449 77.5762 21.9728 75.4079 25.6451 74.6669L28.0217 74.1887L32.1906 94.8925L37.0032 118.797Z" fill="#F8F8F2"/>
<path d="M37.0032 118.797L34.6269 119.276C31.0952 119.986 27.4257 119.322 24.3684 117.417C21.3111 115.512 19.0971 112.512 18.1793 109.03C23.2021 104.68 27.8861 99.9537 32.1906 94.8928L37.0032 118.797Z" fill="#F8F8F2"/>
<path d="M117.453 87.4362L116.227 93.5198C115.557 94.7038 114.848 95.8621 114.099 96.9945C113.728 97.57 113.248 98.0664 112.684 98.4549C112.12 98.8431 111.485 99.1158 110.815 99.2568C110.145 99.3978 109.454 99.4047 108.782 99.2766C108.109 99.1486 107.469 98.8885 106.898 98.5112C106.327 98.1339 105.836 97.6468 105.454 97.0786C105.073 96.5104 104.808 95.872 104.675 95.2009C104.542 94.5294 104.544 93.8385 104.68 93.1677C104.817 92.4969 105.085 91.8601 105.469 91.2936C108.975 85.9891 111.422 80.0571 112.677 73.824C114.623 75.4542 116.094 77.5791 116.934 79.9744C117.775 82.37 117.954 84.9476 117.453 87.4362Z" fill="#F8F8F2"/>
<path d="M111.321 27.0154L103.902 34.4329C99.2789 28.1829 93.2501 23.1078 86.3024 19.6176C79.3551 16.1275 71.6838 14.3202 63.9085 14.3418C46.6619 14.3754 31.3706 23.4269 22.4823 36.951L14.9568 29.4276C20.3827 21.7194 27.5515 15.4002 35.8804 10.9836C44.2091 6.56709 53.463 4.17796 62.8897 4.01047C63.267 4.00273 63.6421 4.00015 64.0171 4.00015C73.1346 3.97973 82.1366 6.04269 90.3349 10.0315C98.5335 14.0204 105.712 19.8295 111.321 27.0154Z" fill="#6272A4"/>
<path d="M89.9744 71.1412L80.6004 117.761C80.0376 120.56 81.8506 123.285 84.65 123.847C87.4494 124.41 90.175 122.597 90.7377 119.798L100.112 73.1784C100.675 70.38 98.8612 67.6552 96.0618 67.0926C93.2624 66.53 90.5371 68.3425 89.9744 71.1412Z" fill="#D6ACFF"/>
<path d="M113.419 91.3015L110.013 108.218C109.273 111.889 107.105 115.117 103.985 117.191C100.865 119.265 97.0495 120.014 93.3766 119.276L90.9999 118.797L93.462 106.576L99.9813 74.1887L102.358 74.6669C106.03 75.4089 109.258 77.5761 111.334 80.6935C111.62 81.1234 111.882 81.5685 112.118 82.0275C113.593 84.8811 114.052 88.1521 113.419 91.3015Z" fill="#F8F8F2"/>
<path d="M113.419 91.3015L110.013 108.218C109.273 111.89 107.105 115.117 103.985 117.191C100.865 119.265 97.0495 120.015 93.3766 119.275L90.9999 118.797L93.462 106.576C100.547 99.0887 106.802 90.8581 112.118 82.0275C113.593 84.8811 114.052 88.1524 113.419 91.3015Z" fill="#F8F8F2"/>
</svg>
