<svg width="163" height="40" viewBox="0 0 163 40" fill="none" xmlns="http://www.w3.org/2000/svg">
<path d="M58.208 29V12.2H65.288C66.28 12.2 67.168 12.44 67.952 12.92C68.752 13.384 69.384 14.024 69.848 14.84C70.328 15.64 70.568 16.544 70.568 17.552C70.568 18.592 70.328 19.528 69.848 20.36C69.384 21.176 68.752 21.832 67.952 22.328C67.168 22.808 66.28 23.048 65.288 23.048H61.664V29H58.208ZM61.64 19.904H64.928C65.52 19.904 66.016 19.688 66.416 19.256C66.832 18.808 67.04 18.256 67.04 17.6C67.04 16.944 66.832 16.408 66.416 15.992C66.016 15.56 65.52 15.344 64.928 15.344H61.64V19.904Z" fill="#F8F8F2"/>
<path d="M78.959 29.24C77.663 29.24 76.511 28.96 75.503 28.4C74.495 27.824 73.703 27.04 73.127 26.048C72.551 25.056 72.263 23.92 72.263 22.64C72.263 21.376 72.551 20.248 73.127 19.256C73.703 18.264 74.495 17.488 75.503 16.928C76.511 16.352 77.663 16.064 78.959 16.064C80.223 16.064 81.359 16.352 82.367 16.928C83.375 17.488 84.167 18.264 84.743 19.256C85.319 20.248 85.607 21.376 85.607 22.64C85.607 23.92 85.319 25.056 84.743 26.048C84.167 27.04 83.375 27.824 82.367 28.4C81.359 28.96 80.223 29.24 78.959 29.24ZM78.959 26.384C79.599 26.384 80.175 26.224 80.687 25.904C81.199 25.568 81.591 25.12 81.863 24.56C82.151 24 82.295 23.36 82.295 22.64C82.295 21.92 82.151 21.28 81.863 20.72C81.591 20.16 81.199 19.72 80.687 19.4C80.175 19.08 79.599 18.92 78.959 18.92C78.303 18.92 77.719 19.08 77.207 19.4C76.695 19.72 76.295 20.16 76.007 20.72C75.719 21.28 75.575 21.92 75.575 22.64C75.575 23.36 75.719 24 76.007 24.56C76.295 25.12 76.695 25.568 77.207 25.904C77.719 26.224 78.303 26.384 78.959 26.384Z" fill="#F8F8F2"/>
<path d="M93.2122 29.24C92.0922 29.24 91.0922 28.96 90.2122 28.4C89.3322 27.824 88.6362 27.04 88.1242 26.048C87.6282 25.056 87.3802 23.928 87.3802 22.664C87.3802 21.384 87.6282 20.248 88.1242 19.256C88.6362 18.264 89.3322 17.488 90.2122 16.928C91.0922 16.352 92.0922 16.064 93.2122 16.064C93.9802 16.064 94.7082 16.216 95.3962 16.52C96.1002 16.824 96.6682 17.216 97.1002 17.696V11.24H100.388V29H97.2682L97.2202 27.488C96.8042 27.984 96.2362 28.4 95.5162 28.736C94.7962 29.072 94.0282 29.24 93.2122 29.24ZM93.9322 26.504C94.9082 26.504 95.7002 26.152 96.3082 25.448C96.9162 24.728 97.2202 23.8 97.2202 22.664C97.2202 21.512 96.9162 20.584 96.3082 19.88C95.7002 19.16 94.9082 18.8 93.9322 18.8C92.9562 18.8 92.1642 19.16 91.5562 19.88C90.9482 20.584 90.6442 21.512 90.6442 22.664C90.6442 23.8 90.9482 24.728 91.5562 25.448C92.1642 26.152 92.9562 26.504 93.9322 26.504Z" fill="#F8F8F2"/>
<path d="M109.208 29.24C108.008 29.24 106.928 28.952 105.968 28.376C105.024 27.8 104.272 27.016 103.712 26.024C103.168 25.032 102.896 23.904 102.896 22.64C102.896 21.392 103.168 20.272 103.712 19.28C104.272 18.288 105.024 17.504 105.968 16.928C106.928 16.352 108.008 16.064 109.208 16.064C110.344 16.064 111.376 16.272 112.304 16.688C113.248 17.104 113.984 17.688 114.512 18.44L112.712 20.6C112.376 20.136 111.912 19.744 111.32 19.424C110.728 19.088 110.128 18.92 109.52 18.92C108.848 18.92 108.248 19.088 107.72 19.424C107.208 19.744 106.8 20.184 106.496 20.744C106.208 21.304 106.064 21.936 106.064 22.64C106.064 23.344 106.216 23.976 106.52 24.536C106.824 25.096 107.24 25.544 107.768 25.88C108.296 26.2 108.888 26.36 109.544 26.36C110.168 26.36 110.744 26.224 111.272 25.952C111.8 25.664 112.28 25.264 112.712 24.752L114.512 26.912C113.968 27.616 113.216 28.184 112.256 28.616C111.296 29.032 110.28 29.24 109.208 29.24Z" fill="#F8F8F2"/>
<path d="M121.472 29.24C120.416 29.24 119.464 28.952 118.616 28.376C117.768 27.8 117.088 27.016 116.576 26.024C116.08 25.032 115.832 23.904 115.832 22.64C115.832 21.344 116.08 20.208 116.576 19.232C117.088 18.24 117.776 17.464 118.64 16.904C119.52 16.344 120.512 16.064 121.616 16.064C122.512 16.064 123.296 16.248 123.968 16.616C124.64 16.968 125.176 17.432 125.576 18.008V16.328H128.84V29H125.552V27.296C125.104 27.856 124.52 28.32 123.8 28.688C123.096 29.056 122.32 29.24 121.472 29.24ZM122.36 26.384C123.336 26.384 124.128 26.04 124.736 25.352C125.344 24.664 125.648 23.76 125.648 22.64C125.648 21.52 125.344 20.616 124.736 19.928C124.128 19.24 123.336 18.896 122.36 18.896C121.4 18.896 120.616 19.24 120.008 19.928C119.416 20.616 119.12 21.52 119.12 22.64C119.12 23.76 119.416 24.664 120.008 25.352C120.616 26.04 121.4 26.384 122.36 26.384Z" fill="#F8F8F2"/>
<path d="M136.531 29.24C135.363 29.24 134.323 29.048 133.411 28.664C132.499 28.28 131.763 27.736 131.203 27.032L133.267 25.28C133.747 25.808 134.291 26.192 134.899 26.432C135.507 26.656 136.123 26.768 136.747 26.768C137.243 26.768 137.643 26.656 137.947 26.432C138.251 26.208 138.403 25.896 138.403 25.496C138.403 25.144 138.259 24.864 137.971 24.656C137.683 24.464 136.995 24.224 135.907 23.936C134.291 23.52 133.147 22.952 132.475 22.232C131.883 21.592 131.587 20.8 131.587 19.856C131.587 19.104 131.811 18.448 132.259 17.888C132.707 17.312 133.299 16.864 134.035 16.544C134.771 16.224 135.571 16.064 136.435 16.064C137.427 16.064 138.363 16.24 139.243 16.592C140.123 16.944 140.859 17.424 141.451 18.032L139.675 19.976C139.227 19.56 138.707 19.216 138.115 18.944C137.539 18.656 137.003 18.512 136.507 18.512C135.355 18.512 134.779 18.912 134.779 19.712C134.795 20.096 134.971 20.4 135.307 20.624C135.627 20.848 136.355 21.112 137.491 21.416C139.011 21.816 140.083 22.344 140.707 23C141.251 23.56 141.523 24.304 141.523 25.232C141.523 26 141.299 26.688 140.851 27.296C140.419 27.904 139.827 28.384 139.075 28.736C138.323 29.072 137.475 29.24 136.531 29.24Z" fill="#F8F8F2"/>
<path d="M145.249 29V19.28H142.849V16.328H145.249V13.088H148.513V16.328H151.177V19.28H148.513V29H145.249Z" fill="#F8F8F2"/>
<path d="M153.376 29V16.328H156.544L156.592 18.416C157.008 17.728 157.552 17.168 158.224 16.736C158.912 16.288 159.632 16.064 160.384 16.064C160.672 16.064 160.936 16.088 161.176 16.136C161.432 16.168 161.648 16.216 161.824 16.28L160.936 19.88C160.76 19.784 160.536 19.704 160.264 19.64C159.992 19.576 159.72 19.544 159.448 19.544C158.664 19.544 158 19.816 157.456 20.36C156.928 20.888 156.664 21.56 156.664 22.376V29H153.376Z" fill="#F8F8F2"/>
<path d="M37.873 19.7578C37.8972 22.9016 37.0933 25.9963 35.5417 28.731C35.3407 29.0862 35.1279 29.4337 34.9032 29.7734C34.7921 29.9461 34.6478 30.095 34.4787 30.2115C34.3096 30.328 34.1191 30.4098 33.9181 30.4521C33.7171 30.4944 33.5097 30.4964 33.3081 30.4581C33.1063 30.4196 32.9142 30.3416 32.7428 30.2283C32.5715 30.1152 32.4243 29.9691 32.3099 29.7987C32.1954 29.6282 32.116 29.4367 32.0761 29.2352C32.0363 29.0339 32.0368 28.8266 32.0777 28.6254C32.1186 28.4241 32.199 28.2331 32.3143 28.0631C33.7951 25.816 34.6391 23.2096 34.7568 20.5211C34.8744 17.8326 34.2612 15.1625 32.9823 12.7946C31.7035 10.4266 29.8067 8.44937 27.4937 7.07297C25.1807 5.69657 22.5379 4.97245 19.8461 4.97758C14.6722 4.98767 10.0847 7.70311 7.41825 11.7604C5.82424 14.181 4.976 17.016 4.97876 19.9141C4.98152 22.8122 5.83515 25.6457 7.43377 28.0631C7.66041 28.4066 7.74132 28.826 7.65867 29.229C7.57603 29.6321 7.33662 29.9858 6.9931 30.2124C6.64959 30.439 6.2301 30.5199 5.82694 30.4372C5.42378 30.3546 5.06996 30.1153 4.84331 29.7718C3.07072 27.0826 2.05256 23.9669 1.89506 20.75C1.73757 17.5332 2.44652 14.3331 3.94793 11.4836C5.44934 8.63401 7.68819 6.23954 10.4308 4.55C13.1735 2.86046 16.3195 1.93776 19.5404 1.8782C19.6537 1.87587 19.7662 1.8751 19.8787 1.8751C24.6356 1.8653 29.202 3.74281 32.5756 7.09552C35.9493 10.4483 37.8544 15.0022 37.873 19.7578Z" fill="#F8F8F2"/>
<path d="M9.01588 22.6437L11.8281 36.6297C11.9969 37.4693 12.8145 38.013 13.6543 37.8443C14.4942 37.6755 15.0381 36.858 14.8693 36.0185L12.0571 22.0325C11.8883 21.1929 11.0706 20.649 10.2308 20.8178C9.39101 20.9866 8.84707 21.8041 9.01588 22.6437Z" fill="#D6ACFF"/>
<path d="M11.7745 36.3142L11.0615 36.4576C10.0021 36.6709 8.90119 36.4714 7.984 35.9001C7.06681 35.3287 6.40262 34.4285 6.12728 33.3838C6.10634 33.3032 6.08695 33.2225 6.07065 33.1403L5.04889 28.0654C4.82747 26.9638 5.0526 25.8193 5.6748 24.8836C6.297 23.9478 7.26536 23.2973 8.36707 23.075L9.08005 22.9316L10.3307 29.1427L11.7745 36.3142Z" fill="#F8F8F2"/>
<path d="M11.7745 36.3142L11.0616 36.4576C10.0021 36.6709 8.90124 36.4714 7.98405 35.9001C7.06685 35.3287 6.40267 34.4286 6.12732 33.3838C7.63416 32.0789 9.03935 30.6611 10.3307 29.1428L11.7745 36.3142Z" fill="#F8F8F2"/>
<path d="M35.9094 26.9058L35.5417 28.7309C35.3407 29.0861 35.1279 29.4336 34.9032 29.7733C34.7921 29.946 34.6478 30.0949 34.4787 30.2114C34.3095 30.3279 34.1191 30.4097 33.9181 30.452C33.7171 30.4943 33.5097 30.4964 33.3081 30.458C33.1063 30.4195 32.9142 30.3415 32.7428 30.2283C32.5715 30.1151 32.4243 29.969 32.3098 29.7985C32.1954 29.6281 32.116 29.4366 32.0761 29.2352C32.0363 29.0338 32.0368 28.8265 32.0777 28.6253C32.1186 28.424 32.1989 28.233 32.3143 28.063C33.3661 26.4717 34.1002 24.6921 34.4765 22.8222C35.0604 23.3112 35.5017 23.9487 35.7538 24.6673C36.0061 25.386 36.0598 26.1593 35.9094 26.9058Z" fill="#F8F8F2"/>
<path d="M34.0699 8.7796L31.8441 11.0048C30.4572 9.12985 28.6486 7.60731 26.5643 6.56026C24.4801 5.51322 22.1787 4.97102 19.8461 4.9775C14.6721 4.98758 10.0847 7.70303 7.41822 11.7603L5.16058 9.50325C6.78834 7.1908 8.93897 5.29502 11.4376 3.97006C13.9363 2.6451 16.7124 1.92836 19.5404 1.87812C19.6536 1.87579 19.7661 1.87502 19.8787 1.87502C22.6139 1.86889 25.3145 2.48778 27.774 3.68443C30.2336 4.88108 32.387 6.62383 34.0699 8.7796Z" fill="#6272A4"/>
<path d="M27.6659 22.0173L24.8536 36.0033C24.6848 36.8429 25.2287 37.6604 26.0685 37.8292C26.9084 37.998 27.726 37.4541 27.8948 36.6145L30.7071 22.6285C30.8759 21.789 30.3319 20.9715 29.4921 20.8027C28.6522 20.634 27.8347 21.1777 27.6659 22.0173Z" fill="#D6ACFF"/>
<path d="M34.6991 28.0654L33.6774 33.1403C33.4555 34.2418 32.8051 35.2102 31.8691 35.8323C30.9332 36.4544 29.7884 36.6793 28.6865 36.4576L27.9735 36.3142L28.7121 32.6478L30.6679 22.9316L31.3809 23.075C32.4825 23.2976 33.451 23.9478 34.0738 24.883C34.1596 25.012 34.238 25.1455 34.3089 25.2832C34.7516 26.1393 34.8892 27.1206 34.6991 28.0654Z" fill="#F8F8F2"/>
<path d="M34.6991 28.0654L33.6774 33.1403C33.4555 34.2419 32.8051 35.2102 31.8691 35.8324C30.9332 36.4544 29.7884 36.6794 28.6865 36.4576L27.9735 36.3142L28.7121 32.6478C30.8375 30.4016 32.714 27.9324 34.3089 25.2832C34.7516 26.1393 34.8892 27.1207 34.6991 28.0654Z" fill="#F8F8F2"/>
</svg>
